# This file uses centimeters as units for non-parametric coordinates.

g default
v -20.763281 42.490940 389.337006
v 20.763281 42.490940 389.337006
v -20.763281 46.257519 389.337006
v 20.763281 46.257519 389.337006
v -20.763281 46.257519 347.810425
v 20.763281 46.257519 347.810425
v -20.763281 42.490940 347.810425
v 20.763281 42.490940 347.810425
v -20.763281 46.257519 351.963104
v 20.763281 46.257519 351.963104
v 20.763281 42.490940 351.963104
v -20.763281 42.490940 351.963104
v 0.000000 42.490940 389.337006
v 0.000000 42.490940 351.963104
v 0.000000 42.490940 347.810425
v 0.000000 46.257519 347.810425
v 0.000000 46.257519 351.963104
v 0.000000 46.257519 389.337006
v 16.610626 42.490940 351.963104
v 16.610626 42.490940 389.337006
v 16.610626 46.257519 389.337006
v 16.610626 46.257519 351.963104
v 16.610626 46.257519 347.810425
v 16.610626 42.490940 347.810425
v -16.610626 42.490940 351.963104
v -16.610626 42.490940 389.337006
v -16.610626 46.257519 389.337006
v -16.610626 46.257519 351.963104
v -16.610626 46.257519 347.810425
v -16.610626 42.490940 347.810425
v -20.763281 46.257519 385.599609
v -16.610624 46.257519 385.599609
v 0.000000 46.257519 385.599609
v 16.610624 46.257519 385.599609
v 20.763281 46.257519 385.599609
v 20.763281 42.490940 385.599609
v 16.610626 42.490940 385.599609
v 0.000000 42.490940 385.599609
v -16.610626 42.490940 385.599609
v -20.763281 42.490940 385.599609
v 0.000000 92.786316 347.810425
v 0.000000 92.786316 351.963104
v 16.610626 92.786316 351.963104
v 16.610626 92.786316 347.810425
v -20.763281 92.786316 351.963104
v -16.610626 92.786316 351.963104
v -16.610626 92.786316 347.810425
v -20.763281 92.786316 347.810425
v 20.763281 92.786316 351.963104
v 20.763281 92.786316 347.810425
v -20.763281 0.311362 347.810425
v -16.610626 0.311362 347.810425
v -16.610626 0.311362 351.963104
v -20.763281 0.311362 351.963104
v 16.610626 0.311362 347.810425
v 16.610626 0.311362 351.963104
v 20.763281 0.311362 347.810425
v 20.763281 0.311362 351.963104
v 16.610626 0.311362 385.599609
v 16.610626 0.311362 389.337006
v 20.763281 0.311362 385.599609
v 20.763281 0.311362 389.337006
v -16.610626 0.311362 385.599609
v -20.763281 0.311362 385.599609
v -16.610626 0.311362 389.337006
v -20.763281 0.311362 389.337006
vt 0.202371 0.201475
vt 0.382932 0.201502
vt 0.202369 0.217852
vt 0.382930 0.217879
vt 0.000000 0.600695
vt 0.382843 0.803064
vt 0.094034 0.201459
vt 0.563494 0.201529
vt 0.563491 0.217906
vt 0.021810 0.201448
vt 0.021807 0.217825
vt 0.039863 0.217828
vt 0.202344 0.380358
vt 0.585187 0.582726
vt 0.545435 0.217904
vt 0.545438 0.201526
vt 0.039866 0.201451
vt 0.292652 0.201488
vt 0.292532 0.999989
vt 0.292557 0.837484
vt 0.292559 0.819428
vt 0.292562 0.803050
vt 0.292625 0.380371
vt 0.292649 0.217866
vt 0.527382 0.201524
vt 0.364876 0.201499
vt 0.364877 0.201499
vt 0.364874 0.217877
vt 0.364850 0.380382
vt 0.364786 0.803061
vt 0.509325 0.201521
vt 0.057922 0.201453
vt 0.220427 0.201478
vt 0.220427 0.201478
vt 0.220425 0.217855
vt 0.220401 0.380360
vt 0.220337 0.803039
vt 0.075978 0.201456
vt 0.186118 0.217850
vt 0.202366 0.234103
vt 0.220422 0.234106
vt 0.292647 0.234116
vt 0.364871 0.234127
vt 0.382927 0.234130
vt 0.399181 0.217882
vt 0.399183 0.201504
vt 0.348626 0.201496
vt 0.292535 0.983739
vt 0.236677 0.201480
vt 0.186120 0.201472
vt 0.254733 0.201483
vt 0.292595 0.582683
vt 0.364819 0.582693
vt 0.364817 0.600749
vt 0.292592 0.600739
vt 0.202314 0.582669
vt 0.220370 0.582672
vt 0.220368 0.600728
vt 0.202311 0.600725
vt 0.382875 0.582696
vt 0.382873 0.600752
vt 0.094062 0.018059
vt 0.076006 0.018056
vt 0.057949 0.018053
vt 0.039893 0.018051
vt 0.509355 0.000064
vt 0.509352 0.018120
vt 0.563521 0.018128
vt 0.545465 0.018126
vt 0.348659 0.001845
vt 0.348656 0.018095
vt 0.399213 0.018104
vt 0.382963 0.018101
vt 0.254761 0.018084
vt 0.236704 0.018081
vt 0.220454 0.018079
vt 0.202398 0.018076
vt 0.220310 0.983728
vt 0.202254 0.983725
vt 0.382816 0.983752
vt 0.364759 0.983749
vt 0.220308 0.999978
vt 0.364757 1.000000
vt 0.220335 0.819417
vt 0.220332 0.837473
vt 0.202276 0.837470
vt 0.364784 0.819438
vt 0.364781 0.837495
vt 0.382840 0.819441
vt 0.382837 0.837497
vt 0.202279 0.819414
vt 0.186148 0.018073
vt 0.254763 0.001833
vt 0.236707 0.001830
vt 0.364907 0.018098
vt 0.330603 0.001842
vt 0.330600 0.018093
vt 0.330570 0.201493
vt 0.491299 0.000062
vt 0.527409 0.018123
vt 0.491296 0.018118
vt 0.491269 0.201518
vt 0.021837 0.018048
vt 0.094064 0.000003
vt 0.076008 0.000000
vt 0.585184 0.600783
vt 0.382906 0.380385
vt 0.202281 0.803037
vt 0.000003 0.582639
vn 0.000000 0.000000 1.000000
vn 0.000000 0.000000 1.000000
vn 0.000000 0.000000 1.000000
vn 0.000000 0.000000 1.000000
vn 0.000000 1.000000 0.000000
vn 0.000000 1.000000 0.000000
vn 0.000000 1.000000 0.000000
vn 0.000000 1.000000 0.000000
vn 0.000000 0.000000 -1.000000
vn 0.000000 0.000000 -1.000000
vn 0.000000 0.000000 -1.000000
vn 0.000000 0.000000 -1.000000
vn 0.000000 -1.000000 0.000000
vn 0.000000 -1.000000 0.000000
vn 0.000000 -1.000000 0.000000
vn 0.000000 -1.000000 0.000000
vn 1.000000 0.000000 0.000000
vn 1.000000 0.000000 0.000000
vn 1.000000 0.000000 0.000000
vn 1.000000 0.000000 0.000000
vn -1.000000 0.000000 0.000000
vn -1.000000 0.000000 0.000000
vn -1.000000 0.000000 0.000000
vn -1.000000 0.000000 0.000000
vn 0.000000 1.000000 0.000000
vn 0.000000 1.000000 0.000000
vn 0.000000 1.000000 0.000000
vn 0.000000 1.000000 0.000000
vn 1.000000 0.000000 0.000000
vn 1.000000 0.000000 0.000000
vn 0.000000 -1.000000 0.000000
vn 0.000000 -1.000000 0.000000
vn -1.000000 0.000000 0.000000
vn -1.000000 0.000000 0.000000
vn 0.000000 -1.000000 0.000000
vn 0.000000 -1.000000 0.000000
vn 0.000000 -1.000000 0.000000
vn 0.000000 -1.000000 0.000000
vn 0.000000 -1.000000 0.000000
vn 0.000000 -1.000000 0.000000
vn 0.000000 -1.000000 0.000000
vn 0.000000 -1.000000 0.000000
vn 0.000000 0.000000 -1.000000
vn 0.000000 0.000000 -1.000000
vn 0.000000 0.000000 -1.000000
vn 0.000000 0.000000 -1.000000
vn 0.000000 1.000000 0.000000
vn 0.000000 1.000000 0.000000
vn 0.000000 1.000000 0.000000
vn 0.000000 1.000000 0.000000
vn 0.000000 1.000000 0.000000
vn 0.000000 1.000000 0.000000
vn 0.000000 1.000000 0.000000
vn 0.000000 1.000000 0.000000
vn 0.000000 0.000000 1.000000
vn 0.000000 0.000000 1.000000
vn 0.000000 0.000000 1.000000
vn 0.000000 0.000000 1.000000
vn 0.000000 -1.000000 0.000000
vn 0.000000 -1.000000 0.000000
vn 0.000000 0.000000 1.000000
vn 0.000000 0.000000 1.000000
vn 0.000000 1.000000 0.000000
vn 0.000000 1.000000 0.000000
vn 0.000000 1.000000 0.000000
vn 0.000000 1.000000 0.000000
vn 0.000000 0.000000 -1.000000
vn 0.000000 0.000000 -1.000000
vn 0.000000 -1.000000 0.000000
vn 0.000000 -1.000000 0.000000
vn 0.000000 -1.000000 0.000000
vn 0.000000 -1.000000 0.000000
vn 0.000000 -1.000000 0.000000
vn 0.000000 1.000000 -0.000001
vn 0.000000 1.000000 -0.000000
vn 0.000000 1.000000 0.000000
vn 0.000000 1.000000 0.000000
vn 0.000000 1.000000 -0.000001
vn 1.000000 0.000000 0.000000
vn 1.000000 0.000000 0.000000
vn 0.000000 -1.000000 0.000000
vn 0.000000 -1.000000 0.000000
vn 0.000000 -1.000000 0.000000
vn 0.000000 -1.000000 0.000000
vn 0.000000 -1.000000 0.000000
vn 0.000000 -1.000000 0.000000
vn 0.000000 -1.000000 0.000000
vn 0.000000 -1.000000 0.000000
vn 0.000000 -1.000000 0.000000
vn 0.000000 -1.000000 0.000000
vn 0.000000 -1.000000 0.000000
vn -1.000000 0.000000 0.000000
vn -1.000000 0.000000 0.000000
vn 0.000000 0.000000 1.000000
vn 0.000000 0.000000 1.000000
vn 0.000000 0.000000 1.000000
vn 0.000000 0.000000 1.000000
vn 0.000000 0.000000 -1.000000
vn 0.000000 0.000000 -1.000000
vn 0.000000 0.000000 -1.000000
vn 0.000000 0.000000 -1.000000
vn 0.000000 0.000000 1.000000
vn 0.000000 0.000000 1.000000
vn 0.000000 0.000000 1.000000
vn 0.000000 0.000000 1.000000
vn 0.000000 0.000000 -1.000000
vn 0.000000 0.000000 -1.000000
vn 0.000000 0.000000 -1.000000
vn 0.000000 0.000000 -1.000000
vn -1.000000 0.000000 0.000000
vn -1.000000 0.000000 0.000000
vn -1.000000 0.000000 0.000000
vn -1.000000 0.000000 0.000000
vn 0.000000 0.000000 1.000000
vn 0.000000 0.000000 1.000000
vn 0.000000 0.000000 1.000000
vn 0.000000 0.000000 1.000000
vn 1.000000 0.000000 0.000000
vn 1.000000 0.000000 0.000000
vn 1.000000 0.000000 0.000000
vn 1.000000 0.000000 0.000000
vn 0.000000 0.000000 -1.000000
vn 0.000000 0.000000 -1.000000
vn 0.000000 0.000000 -1.000000
vn 0.000000 0.000000 -1.000000
vn 0.000000 0.000000 1.000000
vn 0.000000 0.000000 1.000000
vn 0.000000 0.000000 1.000000
vn 0.000000 0.000000 1.000000
vn 0.000000 0.000000 -1.000000
vn 0.000000 0.000000 -1.000000
vn 0.000000 0.000000 -1.000000
vn 0.000000 0.000000 -1.000000
vn 0.000000 0.000000 -1.000000
vn 0.000000 0.000000 -1.000000
vn 0.000000 0.000000 -1.000000
vn 0.000000 0.000000 -1.000000
vn 1.000000 0.000000 0.000000
vn 1.000000 0.000000 0.000000
vn 1.000000 0.000000 0.000000
vn 1.000000 0.000000 0.000000
vn 0.000000 0.000000 1.000000
vn 0.000000 0.000000 1.000000
vn 0.000000 0.000000 1.000000
vn 0.000000 0.000000 1.000000
vn -1.000000 0.000000 0.000000
vn -1.000000 0.000000 0.000000
vn -1.000000 0.000000 0.000000
vn -1.000000 0.000000 0.000000
vn -1.000000 0.000000 0.000000
vn -1.000000 0.000000 0.000000
vn -1.000000 0.000000 0.000000
vn -1.000000 0.000000 0.000000
vn 0.000000 0.000000 -1.000000
vn 0.000000 0.000000 -1.000000
vn 0.000000 0.000000 -1.000000
vn 0.000000 0.000000 -1.000000
vn 1.000000 0.000000 0.000000
vn 1.000000 0.000000 0.000000
vn 1.000000 0.000000 0.000000
vn 1.000000 0.000000 0.000000
vn 0.000000 0.000000 1.000000
vn 0.000000 0.000000 1.000000
vn 0.000000 0.000000 1.000000
vn 0.000000 0.000000 1.000000
vn -1.000000 0.000000 0.000000
vn -1.000000 0.000000 0.000000
vn -1.000000 0.000000 0.000000
vn -1.000000 0.000000 0.000000
vn 0.000000 0.000000 -1.000000
vn 0.000000 0.000000 -1.000000
vn 0.000000 0.000000 -1.000000
vn 0.000000 0.000000 -1.000000
vn 1.000000 0.000000 0.000000
vn 1.000000 0.000000 0.000000
vn 1.000000 0.000000 0.000000
vn 1.000000 0.000000 0.000000
vn 0.000000 0.000000 1.000000
vn 0.000000 0.000000 1.000000
vn 0.000000 0.000000 1.000000
vn 0.000000 0.000000 1.000000
vn 0.000000 0.000000 -1.000000
vn 0.000000 0.000000 -1.000000
vn 0.000000 0.000000 -1.000000
vn 0.000000 0.000000 -1.000000
vn 1.000000 0.000000 0.000000
vn 1.000000 0.000000 0.000000
vn 1.000000 0.000000 0.000000
vn 1.000000 0.000000 0.000000
vn 0.000000 0.000000 1.000000
vn 0.000000 0.000000 1.000000
vn 0.000000 0.000000 1.000000
vn 0.000000 0.000000 1.000000
vn -1.000000 0.000000 0.000000
vn -1.000000 0.000000 0.000000
vn -1.000000 0.000000 0.000000
vn -1.000000 0.000000 0.000000
s 1
g pCube2
f 18/24/1 13/18/2 20/26/3 21/28/4
s 2
f 41/55/5 42/52/6 43/53/7 44/54/8
s 3
f 15/21/9 16/22/10 23/30/11 24/87/12
s 4
f 14/20/13 15/21/14 24/87/15 19/88/16
s 5
f 10/15/17 11/16/18 8/8/19 6/9/20
s 6
f 7/10/21 12/17/22 9/12/23 5/11/24
s 7
f 17/23/25 33/42/26 34/43/27 22/29/28
s 5
f 35/45/29 36/46/30 11/16/18 10/15/17
s 4
f 37/81/31 38/48/32 14/20/13 19/88/16
s 6
f 9/12/23 12/17/22 40/50/33 31/39/34
s 4
f 12/86/35 25/85/36 39/78/37 40/79/38
s off
f 51/62/39 52/63/40 53/105/41 54/104/42
s 3
f 5/108/43 29/37/44 30/84/45 7/91/46
s 2
f 45/56/47 46/57/48 47/58/49 48/59/50
s 7
f 31/40/51 32/41/52 28/36/53 9/13/54
s 1
f 1/1/55 26/33/56 27/35/57 3/3/58
s 4
f 36/80/59 37/81/31 19/88/16 11/90/60
s 1
f 21/28/4 20/26/3 2/2/61 4/4/62
s 7
f 22/29/28 34/43/27 35/44/63 10/107/64
s 2
f 44/54/8 43/53/7 49/60/65 50/61/66
s 3
f 24/87/12 23/30/11 6/6/67 8/89/68
s off
f 56/66/69 55/67/70 57/101/71 58/99/72
s 4
f 38/48/32 39/78/37 25/85/36 14/20/13
s 1
f 27/35/57 26/33/56 13/18/2 18/24/1
s 7
f 28/36/53 32/41/52 33/42/26 17/23/25
s 2
f 47/58/49 46/57/48 42/52/6 41/55/5
s 3
f 30/84/45 29/37/44 16/22/10 15/21/9
s 4
f 25/85/36 30/84/73 15/21/14 14/20/13
s 7
f 3/3/74 27/35/75 32/41/52 31/40/51
f 33/42/26 32/41/52 27/35/75 18/24/76
f 34/43/27 33/42/26 18/24/76 21/28/77
f 35/44/63 34/43/27 21/28/77 4/4/78
s 5
f 2/2/79 36/46/30 35/45/29 4/4/80
s off
f 60/70/81 59/71/82 61/97/83 62/96/84
s 4
f 13/19/85 38/48/32 37/81/31 20/83/86
f 26/82/87 39/78/37 38/48/32 13/19/85
s off
f 64/74/88 63/75/89 65/94/90 66/93/91
s 6
f 31/39/34 40/50/33 1/1/92 3/3/93
s off
f 17/23/94 22/29/95 43/53/96 42/52/97
f 23/30/98 16/22/99 41/55/100 44/54/101
f 9/13/102 28/36/103 46/57/104 45/56/105
f 29/37/106 5/108/107 48/59/108 47/58/109
f 5/5/110 9/109/111 45/56/112 48/59/113
f 22/29/114 10/107/115 49/60/116 43/53/117
f 10/14/118 6/106/119 50/61/120 49/60/121
f 6/6/122 23/30/123 44/54/124 50/61/125
f 28/36/126 17/23/127 42/52/128 46/57/129
f 16/22/130 29/37/131 47/58/132 41/55/133
f 7/7/134 30/38/135 52/63/136 51/62/137
f 30/38/138 25/32/139 53/64/140 52/63/141
f 25/32/142 12/17/143 54/65/144 53/64/145
f 12/17/146 7/10/147 51/103/148 54/65/149
f 19/25/150 24/31/151 55/67/152 56/100/153
f 24/31/154 8/102/155 57/101/156 55/67/157
f 8/8/158 11/16/159 58/69/160 57/68/161
f 11/16/162 19/25/163 56/100/164 58/69/165
f 20/27/166 37/47/167 59/71/168 60/95/169
f 37/47/170 36/98/171 61/97/172 59/71/173
f 36/46/174 2/2/175 62/73/176 61/72/177
f 2/2/178 20/27/179 60/95/180 62/73/181
f 40/51/182 39/49/183 63/75/184 64/74/185
f 39/49/186 26/34/187 65/76/188 63/75/189
f 26/34/190 1/1/191 66/77/192 65/76/193
f 1/1/194 40/50/195 64/92/196 66/77/197
